<?xml version="1.0" standalone="no"?>
<!DOCTYPE svg PUBLIC "-//W3C//DTD SVG 20010904//EN"
 "http://www.w3.org/TR/2001/REC-SVG-20010904/DTD/svg10.dtd">
<svg version="1.0" xmlns="http://www.w3.org/2000/svg"
 width="10.000000pt" height="5.000000pt" viewBox="0 0 10.000000 5.000000"
 preserveAspectRatio="xMidYMid meet">

<g transform="translate(0.000000,5.000000) scale(0.100000,-0.100000)"
fill="#000000" stroke="none">
<path d="M0 29 c0 -22 35 -27 43 -6 4 10 6 10 6 0 1 -18 38 -16 44 2 8 19 0
23 -50 23 -36 1 -43 -2 -43 -19z m30 1 c0 -5 -4 -10 -10 -10 -5 0 -10 5 -10
10 0 6 5 10 10 10 6 0 10 -4 10 -10z m50 0 c0 -5 -4 -10 -10 -10 -5 0 -10 5
-10 10 0 6 5 10 10 10 6 0 10 -4 10 -10z"/>
</g>
</svg>
